<svg xmlns="http://www.w3.org/2000/svg" xmlns:xlink="http://www.w3.org/1999/xlink" viewBox="0 0 103 103">
  <defs>
    <style>
      .cls-1 {
        fill: #185de0;
      }

      .cls-2 {
        clip-path: url(#clip-path);
      }

      .cls-3 {
        fill: none;
      }
    </style>
    <clipPath id="clip-path">
      <rect id="矩形_112" data-name="矩形 112" class="cls-1" width="81.267" height="83.276"/>
    </clipPath>
  </defs>
  <g id="apply-icon2" transform="translate(11.267 9.4)">
    <g id="组_658" data-name="组 658" transform="translate(0.1)">
      <g id="组_657" data-name="组 657" class="cls-2" transform="translate(0)">
        <path id="路径_6316" data-name="路径 6316" class="cls-1" d="M17.4,28.835a3.541,3.541,0,1,1,6.048,2.506,3.506,3.506,0,0,1-2.506,1.035A3.534,3.534,0,0,1,17.4,28.835m28.32-.01a3.534,3.534,0,0,1-3.541,3.541,3.537,3.537,0,1,1,3.541-3.541M59.86,32.366A3.544,3.544,0,1,1,63.4,35.908a3.538,3.538,0,0,1-3.541-3.541M76.5,43.467A8.1,8.1,0,0,1,71.773,47.1a16.159,16.159,0,0,1-8.98-.254A20.3,20.3,0,0,0,65.269,39.2a7.085,7.085,0,1,0-3.551.041c-.4,3.125-2.019,6.565-4.921,10.33a28.783,28.783,0,0,1-12.7,8.97,36.894,36.894,0,0,1-14.6,2.385c-4.353-.244-7.732-1.421-9.264-3.156a3.382,3.382,0,0,1-.9-2.638,8.3,8.3,0,0,1,1.837-4.038,22.147,22.147,0,0,0,7.884-2.324,10.1,10.1,0,0,1,3.795-1.055,16.042,16.042,0,0,1,3.359.173c1.076.122,1.471.162,2.05.2a10.293,10.293,0,0,0,7.62-2.537c3.247-2.638,3.825-6.89,2.009-12.43a.147.147,0,0,1-.02-.071,7.058,7.058,0,1,0-2.983,2.324c.984,3.633.517,6.017-1.218,7.428a6.708,6.708,0,0,1-5.185,1.745c-.477-.02-.832-.071-1.826-.183a19.43,19.43,0,0,0-4.028-.193,13.743,13.743,0,0,0-5.063,1.39c-3.288,1.583-6.129,2.2-8.422,1.969a5.955,5.955,0,0,1-4.394-2.364c-1.948-2.648-.954-6.656,3.206-9.944a7.072,7.072,0,1,0-4.049-6.393,6.925,6.925,0,0,0,1.431,4.252c-3.937,3.369-5.733,8.168-4.546,11.984A5.792,5.792,0,0,1,6.8,42.716a16.365,16.365,0,0,1-3.1-8.148,18.3,18.3,0,0,1,1.076-9.153,7.555,7.555,0,0,1,5.429-4.83,1.768,1.768,0,0,0,1.4-1.542c.477-4.394,1.887-7.671,4.059-9.843a10.276,10.276,0,0,1,6.91-3c5.073-.244,9.883,2.831,10.644,6.707a1.784,1.784,0,0,0,.741,1.136,1.715,1.715,0,0,0,1.329.264,1.784,1.784,0,0,0,1.136-.741,1.758,1.758,0,0,0,.264-1.329A10.586,10.586,0,0,0,33.346,6.5a9.286,9.286,0,0,1,12.187-.183,16.73,16.73,0,0,1,4.7,6.717,1.773,1.773,0,1,0,3.267-1.38,26.678,26.678,0,0,0-1.492-3,13.953,13.953,0,0,1,7.59.071c3.409,1.126,5.652,3.927,6.332,8.919a1.767,1.767,0,1,0,3.5-.477c-.071-.517-.162-1.025-.264-1.532a11.219,11.219,0,0,1,5.743,5.114,11.322,11.322,0,0,1-.112,9.843,1.747,1.747,0,0,0,.315,1.969A9.412,9.412,0,0,1,76.5,43.467M40.409,80.149a3.534,3.534,0,0,1-3.541-3.541,3.491,3.491,0,1,1,3.541,3.541m38.011-49.1a14.684,14.684,0,0,0-.345-11.791c-1.735-3.633-5.794-6.514-10.38-7.8A11.791,11.791,0,0,0,60.682,5.4a17.849,17.849,0,0,0-10.847.244A13.543,13.543,0,0,0,40.672.677,12.823,12.823,0,0,0,30.383,4.472,15.806,15.806,0,0,0,22.377,2.7a13.774,13.774,0,0,0-9.244,4.038A18.734,18.734,0,0,0,8.222,17.491a11.277,11.277,0,0,0-6.707,6.545A21.463,21.463,0,0,0,.166,35.015a19.756,19.756,0,0,0,3.876,9.964A8.933,8.933,0,0,0,12.92,48.47a9.231,9.231,0,0,0,4.221,2.293c-1.969,3.511-1.837,6.788.426,9.345s6.514,4.059,11.72,4.343A40.216,40.216,0,0,0,45.34,61.843c.913-.345,1.8-.71,2.659-1.116l-.03.081a6.54,6.54,0,0,1,4.576,6.119,5.656,5.656,0,0,1-1.573,3.653,10.643,10.643,0,0,1-4.333,2.689,7.121,7.121,0,1,0,.842,3.46c5.378-1.837,8.463-5.429,8.6-9.67a9.753,9.753,0,0,0-4.424-8.3,29.521,29.521,0,0,0,7.915-7.032c.467-.6.913-1.218,1.339-1.847a1.739,1.739,0,0,0,.568.274,20.062,20.062,0,0,0,11.334.335,11.6,11.6,0,0,0,6.738-5.236,12.834,12.834,0,0,0-1.136-14.206" transform="translate(0.007 -0.566)"/>
      </g>
    </g>
    <rect id="矩形_132" data-name="矩形 132" class="cls-3" width="103" height="103" transform="translate(-11.267 -9.4)"/>
  </g>
</svg>
